<?xml version="1.0" encoding="utf-8"?>
<!-- Generator: Adobe Illustrator 25.3.1, SVG Export Plug-In . SVG Version: 6.00 Build 0)  -->
<svg version="1.1" id="Ebene_1" xmlns="http://www.w3.org/2000/svg" xmlns:xlink="http://www.w3.org/1999/xlink" x="0px" y="0px"
	 viewBox="0 0 250 250" style="enable-background:new 0 0 250 250;" xml:space="preserve">
<style type="text/css">
	.st0{fill:#3D3D3C;}
	.st1{fill:#C6264E;}
	.st2{fill:#95223F;}
	.st3{fill:#5F1530;}
</style>
<g>
	<path class="st0" d="M52.06,153.43c-4.8,0-9.3,1.9-13,5.6v-24.8h-13.5v73.9h13.5v-33c0-7.1,4.5-9.5,8.7-9.5c4.3,0,8.8,2.4,8.8,9.5
		v33h13.5v-35C70.06,161.73,63.86,153.43,52.06,153.43z"/>
	<path class="st0" d="M217.66,158.23c-3-3-7.9-4.8-13.3-4.8c-6.7,0-11.6,2.1-16.2,6.8c-3.4-4.7-8.3-6.8-14.3-6.8c-5,0-10,2-13.5,5.6
		v-5h-13.2v54.1h13.5v-32.7c0-7.4,4.8-9.9,9-9.9c4.3,0,8.9,2.5,8.9,9.9v32.7h13.5v-33c0-7.1,4.9-9.5,9-9.5c4.3,0,8.9,2.5,8.9,9.9
		v32.7h13.5v-34.5C223.66,167.63,222.06,162.53,217.66,158.23z"/>
	<path class="st0" d="M96.66,155.63v-5.9c0-3.1,1.5-4.9,4.7-4.9h5.3v-11.4h-7.7c-11,0-15.8,7.8-15.8,15.5v6.7h-5.6v10.3h5.6v42.2
		h13.5v-42.2h18.5v26.8c0,7.7,4.7,15.5,15.7,15.5h7.4v-11.4h-4.9c-3.2,0-4.7-1.8-4.7-4.9v-25.9h9.5v-10.3h-9.6v-16h-13.5v16h-18.4
		V155.63z"/>
</g>
<path class="st1" d="M210.06,46.63c-0.5-3.6-2-1.6-2.6-0.8l-20.5,32.6c-0.1,0.2-2.4,4,0.1,7.8c0,0,34.3,52,34.4,52.1
	s0.5,0.8,0.5,0.8c0.6,0.8,0.9,1.1,0.8-0.2c0,0-0.1-0.8-0.1-1C222.46,136.13,210.06,46.73,210.06,46.63L210.06,46.63z"/>
<path class="st2" d="M203.96,42.93c1.6-1.1,2.3-1,1.1,0.9l-20,31.9c-2.5,4-7,5.7-7,5.7s-59.6,21.9-60.3,22.2
	c-0.8,0.3-1.8,0.5-0.2-0.6L203.96,42.93z"/>
<path class="st3" d="M219.36,140.93c1.6,2.5,0,2.7-1.5,2.1l-99.6-33.7c-2.1-0.7-2.4-1.6-0.3-2.5l59.2-21.8c0,0,0.9-0.3,2.1-0.3
	c1.4,0,3.3,0.4,4.7,2.6L219.36,140.93z"/>
</svg>
